<svg width="164" height="176" viewBox="0 0 164 176" fill="none" xmlns="http://www.w3.org/2000/svg">
<path d="M160.75 48.625L141.062 37.1362M160.75 48.625V68.3125M160.75 48.625L141.062 60.1137M3.25 48.625L22.9375 37.1362M3.25 48.625L22.9375 60.1137M3.25 48.625V68.3125M82 94.5625L101.688 83.0738M82 94.5625L62.3125 83.0738M82 94.5625V114.25M82 173.312L101.688 161.824M82 173.312V153.625M82 173.312L62.3125 161.824M62.3125 14.1675L82 2.6875L101.688 14.1762M160.75 107.688V127.375L141.062 138.864M22.9375 138.864L3.25 127.375V107.688" stroke="url(#paint0_linear_7_83)" stroke-width="5" stroke-linecap="round" stroke-linejoin="round"/>
<defs>
<linearGradient id="paint0_linear_7_83" x1="104.438" y1="-22.4612" x2="-34.8623" y2="68.6766" gradientUnits="userSpaceOnUse">
<stop stop-color="#F1F5F9" stop-opacity="0.01"/>
<stop offset="1" stop-color="#F1F5F9"/>
</linearGradient>
</defs>
</svg>
