<svg width="608" height="250" fill="none" xmlns="http://www.w3.org/2000/svg">
    <path d="m203.75 85.625-19.688-11.489m19.688 11.489v19.687m0-19.687-19.688 11.489M46.25 85.625l19.688-11.489M46.25 85.625l19.688 11.489M46.25 85.625v19.687m78.75 26.25 19.688-11.488M125 131.562l-19.688-11.488M125 131.562v19.688m0 59.062 19.688-11.488M125 210.312v-19.687m0 19.687-19.688-11.488m0-147.657L125 39.687l19.688 11.49m59.062 93.511v19.687l-19.688 11.489m-118.125 0L46.25 164.375v-19.687" stroke="url(#a)" stroke-width="5" stroke-linecap="round" stroke-linejoin="round"/>
    <path d="m242.455 101.955 11.25 35.363h.431l11.273-35.363h10.909L260.273 148.5h-12.682l-16.068-46.545h10.932Zm51.255 47.227c-3.591 0-6.682-.727-9.272-2.182-2.576-1.47-4.561-3.545-5.955-6.227-1.394-2.697-2.091-5.887-2.091-9.568 0-3.591.697-6.743 2.091-9.455 1.394-2.712 3.356-4.826 5.886-6.341 2.546-1.515 5.531-2.273 8.955-2.273 2.303 0 4.447.372 6.432 1.114 2 .727 3.742 1.826 5.227 3.295 1.5 1.47 2.667 3.319 3.5 5.546.833 2.212 1.25 4.803 1.25 7.773v2.659h-29.477v-6h20.363c0-1.394-.303-2.629-.909-3.705a6.52 6.52 0 0 0-2.522-2.523c-1.061-.621-2.296-.931-3.705-.931-1.47 0-2.773.341-3.909 1.022a7.175 7.175 0 0 0-2.636 2.705c-.637 1.121-.963 2.371-.978 3.75v5.704c0 1.728.318 3.22.955 4.478.651 1.257 1.568 2.227 2.75 2.909 1.182.682 2.583 1.023 4.204 1.023 1.076 0 2.061-.152 2.955-.455a6.128 6.128 0 0 0 2.295-1.364 5.915 5.915 0 0 0 1.455-2.227l8.954.591c-.454 2.152-1.386 4.03-2.795 5.636-1.394 1.591-3.197 2.834-5.409 3.728-2.197.878-4.735 1.318-7.614 1.318Zm38.114 0c-3.576 0-6.652-.758-9.227-2.273-2.561-1.53-4.531-3.651-5.909-6.364-1.364-2.712-2.046-5.833-2.046-9.363 0-3.576.689-6.712 2.068-9.409 1.394-2.712 3.371-4.826 5.932-6.341 2.561-1.53 5.606-2.296 9.136-2.296 3.046 0 5.713.553 8 1.659 2.288 1.107 4.099 2.66 5.432 4.66 1.334 2 2.068 4.348 2.205 7.045h-9.137c-.257-1.742-.939-3.144-2.045-4.205-1.091-1.075-2.523-1.613-4.295-1.613-1.5 0-2.811.409-3.932 1.227-1.106.803-1.97 1.977-2.591 3.523-.621 1.545-.932 3.416-.932 5.613 0 2.228.303 4.122.909 5.682.621 1.561 1.492 2.75 2.614 3.568 1.121.819 2.432 1.228 3.932 1.228 1.106 0 2.098-.228 2.977-.682a5.751 5.751 0 0 0 2.204-1.977c.591-.879.978-1.932 1.159-3.159h9.137c-.152 2.666-.879 5.015-2.182 7.045-1.288 2.015-3.068 3.591-5.341 4.727-2.273 1.137-4.962 1.705-8.068 1.705Zm40.358-35.591v7.273h-21.023v-7.273h21.023Zm-16.25-8.364h9.682v32.546c0 .894.136 1.591.409 2.091.272.484.651.825 1.136 1.022.5.197 1.076.296 1.727.296a8.26 8.26 0 0 0 1.364-.114c.455-.091.803-.159 1.045-.204l1.523 7.204c-.485.152-1.166.326-2.045.523-.879.212-1.947.341-3.205.386-2.333.091-4.379-.219-6.136-.932-1.743-.712-3.099-1.818-4.068-3.318-.97-1.5-1.447-3.394-1.432-5.682v-33.818Zm37.954 43.955c-3.53 0-6.583-.75-9.159-2.25-2.56-1.515-4.538-3.621-5.932-6.318-1.393-2.712-2.09-5.856-2.09-9.432 0-3.606.697-6.758 2.09-9.455 1.394-2.712 3.372-4.818 5.932-6.318 2.576-1.515 5.629-2.273 9.159-2.273 3.531 0 6.576.758 9.137 2.273 2.575 1.5 4.56 3.606 5.954 6.318 1.394 2.697 2.091 5.849 2.091 9.455 0 3.576-.697 6.72-2.091 9.432-1.394 2.697-3.379 4.803-5.954 6.318-2.561 1.5-5.606 2.25-9.137 2.25Zm.046-7.5c1.606 0 2.947-.455 4.023-1.364 1.075-.924 1.886-2.182 2.431-3.773.561-1.59.841-3.401.841-5.431 0-2.031-.28-3.841-.841-5.432-.545-1.591-1.356-2.849-2.431-3.773-1.076-.924-2.417-1.386-4.023-1.386-1.621 0-2.985.462-4.091 1.386-1.091.924-1.917 2.182-2.477 3.773-.546 1.591-.819 3.401-.819 5.432 0 2.03.273 3.841.819 5.431.56 1.591 1.386 2.849 2.477 3.773 1.106.909 2.47 1.364 4.091 1.364Zm23.432 6.818v-34.909h9.386v6.091h.364c.636-2.167 1.704-3.803 3.204-4.909 1.5-1.121 3.227-1.682 5.182-1.682.485 0 1.008.03 1.568.091.561.06 1.053.144 1.477.25v8.591c-.454-.137-1.083-.258-1.886-.364a16.955 16.955 0 0 0-2.204-.159c-1.425 0-2.697.311-3.819.932a6.862 6.862 0 0 0-2.636 2.545c-.636 1.091-.955 2.349-.955 3.773v19.75h-9.681Zm26.369 0v-46.545h30.818v8.113h-20.977v11.091h18.932v8.114h-18.932V148.5h-9.841Zm46.937-46.545V148.5h-9.681v-46.545h9.681Zm23.529 47.227c-3.53 0-6.583-.75-9.159-2.25-2.561-1.515-4.538-3.621-5.932-6.318-1.394-2.712-2.091-5.856-2.091-9.432 0-3.606.697-6.758 2.091-9.455 1.394-2.712 3.371-4.818 5.932-6.318 2.576-1.515 5.629-2.273 9.159-2.273 3.53 0 6.576.758 9.136 2.273 2.576 1.5 4.561 3.606 5.955 6.318 1.394 2.697 2.091 5.849 2.091 9.455 0 3.576-.697 6.72-2.091 9.432-1.394 2.697-3.379 4.803-5.955 6.318-2.56 1.5-5.606 2.25-9.136 2.25Zm.045-7.5c1.606 0 2.947-.455 4.023-1.364 1.076-.924 1.886-2.182 2.432-3.773.56-1.59.841-3.401.841-5.431 0-2.031-.281-3.841-.841-5.432-.546-1.591-1.356-2.849-2.432-3.773-1.076-.924-2.417-1.386-4.023-1.386-1.621 0-2.985.462-4.091 1.386-1.09.924-1.916 2.182-2.477 3.773-.545 1.591-.818 3.401-.818 5.432 0 2.03.273 3.841.818 5.431.561 1.591 1.387 2.849 2.477 3.773 1.106.909 2.47 1.364 4.091 1.364Zm29.444 6.818-9.5-34.909h9.795l5.409 23.454h.318l5.637-23.454h9.613l5.728 23.318h.295l5.318-23.318h9.773l-9.477 34.909h-10.25l-6-21.955h-.432l-6 21.955h-10.227Z" fill="url(#b)"/>
    <defs>
        <linearGradient id="a" x1="147.438" y1="14.539" x2="8.138" y2="105.677" gradientUnits="userSpaceOnUse">
            <stop stop-opacity=".01"/>
            <stop offset="1"/>
        </linearGradient>
        <linearGradient id="b" x1="520.316" y1="57.5" x2="499.382" y2="218.249" gradientUnits="userSpaceOnUse">
            <stop stop-opacity=".01"/>
            <stop offset=".573"/>
        </linearGradient>
    </defs>
</svg>
